<svg id="Ebene_1" data-name="Ebene 1" xmlns="http://www.w3.org/2000/svg" xmlns:xlink="http://www.w3.org/1999/xlink" viewBox="0 0 415.07 61.5"><defs><style>.cls-1{fill:#575756;}.cls-2{fill:url(#radial-gradient);}</style><radialGradient id="radial-gradient" cx="28.55" cy="35.16" fx="5.894864297781151" r="28.2" gradientTransform="translate(84.22 42.3) rotate(135)" gradientUnits="userSpaceOnUse"><stop offset="0" stop-color="#fff"/><stop offset="0.1" stop-color="#fffadf"/><stop offset="0.31" stop-color="#ffec8e"/><stop offset="0.62" stop-color="#ffd70d"/><stop offset="0.65" stop-color="#ffd500"/></radialGradient></defs><title>WK_CMYK_schwarz80</title><circle class="cls-1" cx="30.75" cy="30.75" r="30.75"/><circle class="cls-2" cx="39.17" cy="37.62" r="28.2" transform="translate(-19.98 50.42) rotate(-65)"/><path class="cls-1" d="M20,58.63a28.56,28.56,0,0,0,38.56,0Z" transform="translate(-8.5 -6.8)"/><path class="cls-1" d="M64.79,50.35H13.71a28.59,28.59,0,0,0,2.82,4.51H62A28.55,28.55,0,0,0,64.79,50.35Z" transform="translate(-8.5 -6.8)"/><path class="cls-1" d="M12.19,46.72H66.31a28.41,28.41,0,0,0,1-3.74H11.2A28.41,28.41,0,0,0,12.19,46.72Z" transform="translate(-8.5 -6.8)"/><polygon class="cls-1" points="391.89 13.73 391.89 48.51 415.07 48.51 415.07 42.91 398.21 42.91 398.21 33.8 413.9 33.8 413.9 28.03 398.29 28.03 398.29 19.28 414.73 19.28 414.73 13.73 391.89 13.73"/><polygon class="cls-1" points="385.87 19.32 385.87 13.73 359.53 13.73 359.53 19.32 369.5 19.32 369.5 48.51 375.94 48.51 375.94 19.32 385.87 19.32"/><polygon class="cls-1" points="354.37 19.32 354.37 13.73 328.03 13.73 328.03 19.32 338 19.32 338 48.51 344.44 48.51 344.44 19.32 354.37 19.32"/><path class="cls-1" d="M316.61,20.29q-17.46,0-17.46,17.68.78,17.58,17.46,17.58,17.19,0,17.19-17.58T316.61,20.29Zm0,29.67q-10.77,0-10.77-12.13,0-11.94,10.77-11.94,10.51,0,10.5,11.94Q327.12,50,316.61,50Z" transform="translate(-8.5 -6.8)"/><polygon class="cls-1" points="289.88 13.73 282 13.73 267.04 30.28 267.05 30.3 266.88 30.49 266.88 13.73 260.44 13.73 260.44 48.51 266.88 48.51 266.88 38.1 270.4 34.37 282.05 48.52 289.71 48.5 274.56 29.95 289.88 13.73"/><path class="cls-1" d="M255.24,55.35l-7.33-14.74h-7.85V55.32h-6.36V20.55h16.06c7,0,10.84,4.06,10.84,9.85,0,4.87-2.33,8.85-6,10.13L262,55.35ZM249.38,26h-9.3v8.78h9.3c2.87,0,5-1.87,5-4.4S252.22,26,249.38,26Z" transform="translate(-8.5 -6.8)"/><polygon class="cls-1" points="193.93 13.73 193.93 48.51 217.11 48.51 217.11 42.91 200.25 42.91 200.25 33.8 215.94 33.8 215.94 28.03 200.33 28.03 200.33 19.28 216.77 19.28 216.77 13.73 193.93 13.73"/><polygon class="cls-1" points="160.95 13.73 160.95 19.32 170.92 19.32 170.92 48.51 177.37 48.51 177.37 19.32 187.33 19.32 187.33 13.73 160.95 13.73"/><path class="cls-1" d="M157.41,20.54h-6.93L135.72,55.31h6.62l3.86-9.48h15l4.38,9.48h6.93Zm-8.94,19.7,5.32-13.06,5.69,13.06Z" transform="translate(-8.5 -6.8)"/><polygon class="cls-1" points="124.26 13.73 112.8 40.72 103.32 13.73 96.68 13.73 87.21 40.7 75.76 13.73 69.14 13.73 83.9 48.47 90.52 48.47 100 21.49 109.48 48.47 116.12 48.47 130.87 13.73 124.26 13.73"/></svg>